<?xml version="1.0" encoding="UTF-8"?>
<svg xmlns="http://www.w3.org/2000/svg" xmlns:xlink="http://www.w3.org/1999/xlink" width="20px" height="20px" viewBox="0 0 20 20" version="1.1">
<g id="surface1">
<path style=" stroke:none;fill-rule:nonzero;fill:rgb(96.862745%,65.882355%,13.725491%);fill-opacity:1;" d="M 8.886719 0 L 2.835938 0 C 1.292969 0 0 1.25 0 2.839844 L 0 8.894531 C 0 9.183594 0.210938 9.394531 0.5 9.394531 L 9.265625 9.394531 C 9.304688 9.394531 9.347656 9.351562 9.347656 9.3125 L 9.347656 0.542969 C 9.390625 0.25 9.179688 0 8.886719 0 Z M 8.429688 0.960938 L 8.429688 8.476562 L 0.960938 8.476562 L 0.960938 2.839844 C 0.960938 1.796875 1.796875 0.960938 2.835938 0.960938 Z M 8.429688 0.960938 "/>
<path style=" stroke:none;fill-rule:nonzero;fill:rgb(46.27451%,72.156864%,16.470589%);fill-opacity:1;" d="M 9.265625 10.648438 L 0.5 10.648438 C 0.210938 10.648438 0 10.855469 0 11.148438 L 0 17.203125 C 0 18.75 1.25 20 2.835938 20 L 9.265625 20 C 9.304688 20 9.347656 19.957031 9.347656 19.917969 L 9.347656 10.773438 C 9.390625 10.6875 9.347656 10.648438 9.265625 10.648438 Z M 8.429688 11.605469 L 8.429688 19.121094 L 2.835938 19.121094 C 1.796875 19.121094 0.960938 18.289062 0.960938 17.246094 L 0.960938 11.605469 Z M 8.429688 11.605469 "/>
<path style=" stroke:none;fill-rule:nonzero;fill:rgb(52.549022%,50.980395%,85.09804%);fill-opacity:1;" d="M 17.195312 0 L 11.144531 0 C 10.851562 0 10.644531 0.210938 10.644531 0.5 L 10.644531 9.269531 C 10.644531 9.3125 10.683594 9.351562 10.726562 9.351562 L 19.449219 9.351562 C 19.742188 9.351562 19.992188 9.101562 19.992188 8.808594 L 19.992188 2.839844 C 20.03125 1.292969 18.738281 0 17.195312 0 Z M 19.070312 2.839844 L 19.070312 8.433594 L 11.601562 8.433594 L 11.601562 0.917969 L 17.195312 0.917969 C 18.195312 0.960938 19.070312 1.796875 19.070312 2.839844 Z M 19.070312 2.839844 "/>
<path style=" stroke:none;fill-rule:nonzero;fill:rgb(91.764706%,36.078432%,4.313726%);fill-opacity:1;" d="M 19.488281 10.648438 L 10.765625 10.648438 C 10.726562 10.648438 10.683594 10.6875 10.683594 10.730469 L 10.683594 19.875 C 10.683594 19.917969 10.726562 19.957031 10.765625 19.957031 L 17.195312 19.957031 C 18.738281 19.957031 20.03125 18.707031 20.03125 17.160156 L 20.03125 11.191406 C 20.03125 10.898438 19.78125 10.648438 19.488281 10.648438 Z M 19.070312 11.605469 L 19.070312 17.160156 C 19.070312 18.203125 18.238281 19.039062 17.195312 19.039062 L 11.601562 19.039062 L 11.601562 11.605469 Z M 19.070312 11.605469 "/>
<path style=" stroke:none;fill-rule:nonzero;fill:rgb(22.745098%,48.627451%,100%);fill-opacity:1;" d="M 12.519531 4.882812 L 7.511719 4.882812 C 6.09375 4.882812 4.921875 6.054688 4.921875 7.472656 L 4.921875 12.484375 C 4.921875 13.90625 6.09375 15.074219 7.511719 15.074219 L 12.519531 15.074219 C 13.9375 15.074219 15.109375 13.90625 15.109375 12.484375 L 15.109375 7.515625 C 15.148438 6.054688 13.980469 4.882812 12.519531 4.882812 Z M 14.1875 7.515625 L 14.1875 12.527344 C 14.1875 13.445312 13.4375 14.195312 12.519531 14.195312 L 7.511719 14.195312 C 6.59375 14.195312 5.84375 13.445312 5.84375 12.527344 L 5.84375 7.515625 C 5.84375 6.597656 6.59375 5.84375 7.511719 5.84375 L 12.519531 5.84375 C 13.4375 5.84375 14.1875 6.597656 14.1875 7.515625 Z M 14.1875 7.515625 "/>
</g>
</svg>
